<svg width="1200" height="700" viewBox="0 0 1200 700" fill="none" xmlns="http://www.w3.org/2000/svg">
  <defs>
    <linearGradient id="lid" x1="230" y1="110" x2="980" y2="420" gradientUnits="userSpaceOnUse">
      <stop stop-color="#1F2937"/>
      <stop offset="1" stop-color="#374151"/>
    </linearGradient>
    <linearGradient id="base" x1="160" y1="470" x2="1040" y2="640" gradientUnits="userSpaceOnUse">
      <stop stop-color="#111827"/>
      <stop offset="1" stop-color="#4B5563"/>
    </linearGradient>
    <radialGradient id="screenGlow" cx="0" cy="0" r="1" gradientUnits="userSpaceOnUse" gradientTransform="translate(606 272) rotate(90) scale(200 360)">
      <stop stop-color="#60A5FA" stop-opacity="0.45"/>
      <stop offset="1" stop-color="#111827" stop-opacity="0"/>
    </radialGradient>
  </defs>

  <g filter="url(#shadow)">
    <path d="M210 132C210 111.013 227.013 94 248 94H952C972.987 94 990 111.013 990 132V433C990 453.987 972.987 471 952 471H248C227.013 471 210 453.987 210 433V132Z" fill="url(#lid)"/>
    <path d="M245 130C245 117.85 254.85 108 267 108H933C945.15 108 955 117.85 955 130V422C955 434.15 945.15 444 933 444H267C254.85 444 245 434.15 245 422V130Z" fill="#030712"/>
    <rect x="260" y="124" width="680" height="305" rx="14" fill="url(#screenGlow)"/>
    <path d="M200 470H1000L1072 598C1076.51 606.014 1070.71 616 1061.5 616H138.5C129.287 616 123.486 606.014 128 598L200 470Z" fill="url(#base)"/>
    <path d="M520 522H680L694 548H506L520 522Z" fill="#9CA3AF" fill-opacity="0.7"/>
    <path d="M318 500H882V571H318V500Z" fill="#1F2937"/>
    <path d="M318 500H882V507H318V500Z" fill="#6B7280" fill-opacity="0.7"/>

    <g opacity="0.92">
      <rect x="344" y="520" width="44" height="24" rx="4" fill="#374151"/>
      <rect x="394" y="520" width="44" height="24" rx="4" fill="#374151"/>
      <rect x="444" y="520" width="44" height="24" rx="4" fill="#374151"/>
      <rect x="494" y="520" width="44" height="24" rx="4" fill="#374151"/>
      <rect x="544" y="520" width="44" height="24" rx="4" fill="#374151"/>
      <rect x="594" y="520" width="44" height="24" rx="4" fill="#374151"/>
      <rect x="644" y="520" width="44" height="24" rx="4" fill="#374151"/>
      <rect x="694" y="520" width="44" height="24" rx="4" fill="#374151"/>
      <rect x="744" y="520" width="44" height="24" rx="4" fill="#374151"/>
      <rect x="794" y="520" width="44" height="24" rx="4" fill="#374151"/>
      <rect x="344" y="548" width="62" height="16" rx="4" fill="#4B5563"/>
      <rect x="412" y="548" width="62" height="16" rx="4" fill="#4B5563"/>
      <rect x="480" y="548" width="62" height="16" rx="4" fill="#4B5563"/>
      <rect x="548" y="548" width="104" height="16" rx="4" fill="#6B7280"/>
      <rect x="658" y="548" width="62" height="16" rx="4" fill="#4B5563"/>
      <rect x="726" y="548" width="62" height="16" rx="4" fill="#4B5563"/>
      <rect x="794" y="548" width="44" height="16" rx="4" fill="#4B5563"/>
    </g>
  </g>

  <defs>
    <filter id="shadow" x="94" y="84" width="1012" height="548" filterUnits="userSpaceOnUse" color-interpolation-filters="sRGB">
      <feFlood flood-opacity="0" result="BackgroundImageFix"/>
      <feColorMatrix in="SourceAlpha" type="matrix" values="0 0 0 0 0 0 0 0 0 0 0 0 0 0 0 0 0 0 127 0" result="hardAlpha"/>
      <feOffset dy="8"/>
      <feGaussianBlur stdDeviation="10"/>
      <feComposite in2="hardAlpha" operator="out"/>
      <feColorMatrix type="matrix" values="0 0 0 0 0.02 0 0 0 0 0.05 0 0 0 0 0.12 0 0 0 0.4 0"/>
      <feBlend mode="normal" in2="BackgroundImageFix" result="effect1_dropShadow_1_1"/>
      <feBlend mode="normal" in="SourceGraphic" in2="effect1_dropShadow_1_1" result="shape"/>
    </filter>
  </defs>
</svg>
